# xmcd
#
# Track frame offsets:
#	225
#	21449
#	38686
#	58140
#	77051
#	94537
#	116007
#	133246
#	151876
#	178402
#	196347
#	210779
#
# Disc length: 3021 seconds
#
# Revision: 0
# Processed by: cddbd v1.5.2PL0 Copyright (c) Steve Scherf et al.
# Submitted via: audiograbber 1.83.01
#
DISCID=a00bca0c
DTITLE=Pius Holzer - Country Gospel Vol. II
DYEAR=2001
DGENRE=Country
TTITLE0=Cumm wier rede amal vam Himmul - Cumm wier rede amal vam Himmul
TTITLE1=Aer isch uber ds Wasser gluffu - Aer isch uber ds Wasser gluffu
TTITLE2=Jetz gsehn i ds Licht schynu in Jesus - Jetz gsehn i ds Licht schynu in
TTITLE2=Jesus
TTITLE3=Deich drüber naa - Deich drüber naa
TTITLE4=Leg dyni Hand in d Hand va dem Galiläer - Deich drüber naa
TTITLE5=Engla - Engla
TTITLE6=Wenns im Läbe fyschter wird - Wenns im Läbe fyschter wird
TTITLE7=Läät mi läbe - Läät mi läbe
TTITLE8=Tüe mit Jesus redu - Tüe mit Jesus redu
TTITLE9=Im Himmulrych - Im Himmulrych
TTITLE10=Das isch doch ds Heegschta - Das isch doch ds Heegschta
TTITLE11=Ich stüünu uber die Gnad - Ich stüünu uber die Gnad
EXTD=
EXTT0=
EXTT1=
EXTT2=
EXTT3=
EXTT4=
EXTT5=
EXTT6=
EXTT7=
EXTT8=
EXTT9=
EXTT10=
EXTT11=
PLAYORDER=
